<?xml version="1.0" encoding="utf-8"?>
<!-- Generator: Adobe Illustrator 27.9.0, SVG Export Plug-In . SVG Version: 6.00 Build 0)  -->
<svg version="1.1" id="Camada_1" xmlns="http://www.w3.org/2000/svg" xmlns:xlink="http://www.w3.org/1999/xlink" x="0px" y="0px"
	 viewBox="0 0 500 500" style="enable-background:new 0 0 500 500;" xml:space="preserve">
<style type="text/css">
	.st0{fill:#26303C;}
	.st1{fill:#A6495A;}
	.st2{fill:#67733D;}
</style>
<g>
	<path class="st0" d="M349.33,286.49c25.05,0.25,41.62,19.08,42.83,39.01c1.4,23.05-13.53,41.49-36.47,45
		c-17.94,2.74-41.17-7.28-47.64-36.18c-3.88,5.45-7.33,10.21-10.67,15.04c-0.98,1.42-1.65,3.06-2.47,4.61
		c-1.6,3.02-2.36,5.62-0.26,9.22c3.3,5.68,2.47,11.83-1.18,17.33c-1.07,1.61-1.02,2.61,0,4.24c6.01,9.62,2.2,21.57-8.11,26.37
		c-1.39,0.65-2.76,2.02-3.44,3.39c-6.9,14.07-18.04,21.96-33.75,21.88c-15.54-0.08-26.57-7.97-33.33-21.92
		c-0.55-1.13-1.38-2.43-2.43-2.96c-12.56-6.38-15.45-17.08-8.09-27.95c-1.7-5.36-3.24-10.23-4.84-15.28
		c-0.34,0.32-1.28,1.16-2.17,2.06c-11.03,11.02-22.01,22.09-33.12,33.03c-1.53,1.51-3.53,2.78-5.54,3.56
		c-24.26,9.42-48.54,18.77-72.85,28.06c-10.44,3.99-20.61-0.99-22.59-11.33c-0.56-2.9-0.25-6.34,0.79-9.11
		c9.47-25.17,19.16-50.26,28.88-75.34c0.6-1.55,1.83-2.95,3.03-4.16c16.19-16.27,32.46-32.46,48.6-48.77c0.99-1,1.94-3.16,1.53-4.26
		c-5.84-15.61-6.61-31.6-4.09-47.89c0.04-0.24-0.03-0.5-0.07-1.2c-1.8,0-3.63,0-5.46,0c-11.97,0-23.95,0.01-35.92,0
		c-18.71-0.02-33.68-11.62-36.98-28.61c-3.49-18,5.46-33.84,23.24-41.16c0.44-0.18,0.84-0.47,1.45-0.82
		c-2.53-11.49-2.12-22.87,2.22-33.8c9.21-23.2,26.39-36.81,51.19-38.97c23.89-2.07,42.62,8.03,55.68,28.16
		c1.68,2.6,3.02,2.92,5.91,2.43c20.4-3.44,36.78,3.38,48.81,20.19c1.66,2.31,3.41,3.05,6.03,3.45c7,1.07,14,2.3,20.89,3.92
		c2.53,0.59,4.03,0.32,5.84-1.51c22.08-22.2,44.19-44.36,66.4-66.43c18.07-17.95,45.64-19.44,64.95-3.68
		c22.36,18.26,24.1,51.06,3.57,71.82c-22.02,22.26-44.22,44.34-66.44,66.39c-2.07,2.06-2.4,3.73-1.61,6.5
		c6.21,21.64,7.15,43.18-2.07,64.35C349.42,285.47,349.43,285.86,349.33,286.49z M122.85,196.85c-0.3-1.79-0.5-3.28-0.81-4.73
		c-2.62-12.23-14.12-20.51-26.23-18.93c-12.38,1.61-21.4,12.14-21.07,24.6c0.34,13.15,11.01,23.15,24.89,23.16
		c53.15,0.03,106.29,0.01,159.44,0.01c0.87,0,1.75,0.04,2.62-0.06c7.16-0.82,12.41-4.41,15.19-11.09
		c2.86-6.86,1.68-13.31-3.26-18.78c-4.82-5.35-10.98-7.27-17.99-5.27c-8.44,2.41-12.45,8.55-13.44,17.04c-3.91,0-7.72,0-11.52,0
		c-0.56-9.51,4.99-19.27,13.85-25.17c1.43-0.96,2.79-2.85,3.11-4.53c3.15-16.1-5.71-32.4-20.96-39
		c-15.23-6.59-32.95-1.88-42.87,11.42c-3.62,4.86-6.09,10.19-6.68,16.22c12.32,6.2,18.23,14.36,16.83,23.29c-2.44,0-4.92,0-7.4,0
		c-1.23,0-2.47,0-3.64,0c-2.15-8.15-6.18-11.98-12.42-11.97c-6.24,0.01-10.12,3.7-12.34,11.73c-3.82,0-7.63,0-11.43,0
		c-0.03-9.84,5.9-18.41,15.35-22.04c1.98-0.76,2.89-1.65,3.27-3.84c2.02-11.92,7.9-21.66,17.31-29.24c1.73-1.39,3.57-2.65,5.41-4.01
		c-0.28-0.58-0.47-1.04-0.71-1.45c-11.55-19.61-36.53-28.15-58-19.83c-21.62,8.38-34.51,31.74-29.85,54
		c0.42,1.99,1.25,2.84,3.38,3.07c6.85,0.73,13.02,3.31,18.34,7.72c8.62,7.14,12.99,16.32,13.35,27.7
		C130.46,196.85,126.75,196.85,122.85,196.85z M230.41,232.91c0,5.49-0.01,10.57,0,15.66c0.01,6.41,1.86,8.3,8.16,8.31
		c14.97,0.01,29.94,0.03,44.9-0.01c4.4-0.01,8.37,1.13,11.84,3.85c6.05,4.73,8.42,12.58,6.03,19.8c-2.4,7.25-9.15,12.24-17.06,12.27
		c-19.58,0.08-39.17,0.01-58.75,0.04c-4.4,0.01-7.08,2.35-7.07,5.98c0.01,3.63,2.69,5.91,7.1,5.97c3.74,0.05,7.49-0.06,11.23,0.04
		c8.25,0.22,15.16,5.7,16.94,13.77c0.66,3,0.58,6.18,0.61,9.28c0.08,8.19,0.03,16.37,0.03,24.92c9.03,0,17.62,0.06,26.19-0.1
		c0.82-0.02,1.77-1.35,2.38-2.26c4.75-7.13,8.78-14.86,14.3-21.33c8-9.37,17.09-17.81,25.65-26.69
		c12.65-13.12,20.4-28.5,21.19-46.96c1.81-42.12-24.02-80.62-63.76-94.69c-6.72-2.38-13.8-3.7-20.84-5.54
		c0.37,6.48,0.69,12,1.01,17.53c2.54,0.46,5.28,0.74,7.89,1.46c14.18,3.95,23.61,17.98,21.73,32.18
		c-1.99,15.08-14.17,26.24-29.18,26.49C250.96,233.05,240.99,232.91,230.41,232.91z M154.4,233.06
		c-4.09,21.98-1.84,42.43,12.02,60.31c5.4,6.97,11.66,13.32,17.92,19.56c11.96,11.92,23.89,23.78,30.34,39.58c9.36,0,18.4,0,27.37,0
		c0.16-0.5,0.29-0.73,0.29-0.96c0.03-7.61,0.05-15.22,0.05-22.83c0.01-11.48-0.48-11.95-11.99-11.97c-2.99-0.01-6.04,0.19-8.96-0.3
		c-9.25-1.55-15.59-9.79-14.93-19.03c0.66-9.25,8.42-16.52,18.02-16.56c18.84-0.09,37.67-0.03,56.51-0.03c1,0,2,0.04,2.99-0.02
		c3.78-0.22,6.3-2.69,6.24-6.08c-0.06-3.25-2.5-5.62-6.07-5.86c-0.99-0.07-2-0.02-2.99-0.02c-14.22,0-28.44,0.01-42.66,0
		c-12.94-0.01-20.09-7.19-20.1-20.17c0-5.19,0-10.37,0-15.62C196.87,233.06,175.82,233.06,154.4,233.06z M181.12,325.79
		c-16.87,16.91-32.69,32.76-48.23,48.33c-2.67-2.43-5.51-5.01-8.81-8.02c16.1-16.06,32.02-31.94,47.71-47.58
		c-6.61-7.68-12.92-15.02-19.34-22.48c-0.24,0.18-0.67,0.42-1,0.76c-15.44,15.42-30.89,30.84-46.27,46.32
		c-1.1,1.11-1.98,2.6-2.55,4.07c-5.37,13.81-10.6,27.66-16.02,41.45c-0.79,2.01-0.33,3.13,1.08,4.51
		c6.24,6.11,12.42,12.27,18.51,18.52c1.44,1.48,2.61,1.72,4.55,0.96c13.56-5.32,27.17-10.49,40.74-15.78
		c1.59-0.62,3.29-1.4,4.47-2.58c14.17-14.04,28.28-28.15,42.29-42.36c0.71-0.72,0.97-2.94,0.41-3.69
		C193.21,341.01,187.55,333.95,181.12,325.79z M346.26,204.05c16-16.43,32.15-33,47.93-49.19c-16.43-16.44-33.4-33.41-49.47-49.48
		c-16.3,15.8-32.9,31.89-49.25,47.74c8.33,5.59,16.55,11.1,25.6,17.17c11.54-11.59,23.37-23.46,34.91-35.04
		c2.74,2.72,5.46,5.41,8.49,8.41c-11.76,11.67-23.66,23.49-35.23,34.98C335.12,187.39,340.63,195.63,346.26,204.05z M353.43,94.62
		c17.19,17.19,34.17,34.16,51.19,51.18c2.66-2.64,5.85-5.45,8.63-8.62c10.03-11.42,11.59-28.28,4.02-41.53
		c-7.57-13.25-22.58-20.27-37.38-17.94C368.34,79.54,360.47,86.7,353.43,94.62z M320.25,327.74c-0.04,17.69,13.76,31.23,30.62,30.92
		c16.56-0.3,29.72-14.28,29.23-31.04c-0.49-16.5-14.79-29.6-31.45-28.78c-4.88,0.24-8.94,1.59-12.11,5.98
		c-3.33,4.61-7.42,8.76-11.65,12.59C321.4,320.57,320.12,324.2,320.25,327.74z M248.38,364.67c-9.48,0-18.96-0.02-28.44,0.01
		c-4.72,0.01-7.46,2.25-7.46,5.98c0,3.73,2.74,5.98,7.46,5.98c18.96,0.02,37.92,0.02,56.88,0c4.71,0,7.46-2.26,7.46-5.98
		c0-3.73-2.74-5.97-7.46-5.98C267.34,364.65,257.86,364.67,248.38,364.67z M248.14,400.6c9.48,0,18.96,0.01,28.44-0.01
		c4.96-0.01,7.79-2.29,7.7-6.12c-0.09-3.71-2.82-5.84-7.6-5.84c-18.83-0.01-37.67-0.01-56.5,0c-4.96,0-7.79,2.28-7.7,6.12
		c0.09,3.7,2.82,5.84,7.6,5.85C229.43,400.61,238.78,400.6,248.14,400.6z M227.33,412.72c5.88,8.38,13.3,12.31,22.73,11.69
		c8.11-0.53,14.48-4.37,19.23-11.69C255.14,412.72,241.62,412.72,227.33,412.72z M96.16,418.18c-2.87-2.73-5.4-4.93-7.69-7.37
		c-2.32-2.47-4.41-5.18-7.12-8.4c-2.43,6.34-4.4,11.05-5.97,15.88c-0.45,1.41-0.29,3.83,0.62,4.66c1.08,0.98,3.46,1.38,4.94,0.92
		C85.79,422.36,90.49,420.35,96.16,418.18z"/>
	<path class="st1" d="M181.12,325.79c6.43,8.16,12.09,15.22,17.53,22.44c0.56,0.75,0.3,2.97-0.41,3.69
		c-14.01,14.21-28.12,28.32-42.29,42.36c-1.19,1.17-2.88,1.96-4.47,2.58c-13.57,5.29-27.19,10.46-40.74,15.78
		c-1.93,0.76-3.1,0.52-4.55-0.96c-6.09-6.25-12.28-12.41-18.51-18.52c-1.41-1.38-1.87-2.51-1.08-4.51
		c5.41-13.79,10.64-27.65,16.02-41.45c0.57-1.47,1.45-2.96,2.55-4.07c15.38-15.48,30.83-30.89,46.27-46.32
		c0.34-0.34,0.76-0.58,1-0.76c6.42,7.46,12.74,14.8,19.34,22.48c-15.69,15.64-31.6,31.52-47.71,47.58c3.31,3.01,6.14,5.59,8.81,8.02
		C148.43,358.55,164.25,342.7,181.12,325.79z"/>
	<path class="st1" d="M346.26,204.05c-5.63-8.42-11.14-16.66-17.01-25.42c11.57-11.49,23.48-23.31,35.23-34.98
		c-3.03-3-5.75-5.69-8.49-8.41c-11.54,11.58-23.37,23.46-34.91,35.04c-9.05-6.07-17.28-11.59-25.6-17.17
		c16.35-15.85,32.94-31.93,49.25-47.74c16.06,16.07,33.03,33.04,49.47,49.48C378.41,171.05,362.26,187.62,346.26,204.05z"/>
	<path class="st2" d="M320.25,327.74c-0.13-3.54,1.15-7.17,4.64-10.32c4.23-3.83,8.32-7.98,11.65-12.59
		c3.17-4.39,7.23-5.73,12.11-5.98c16.65-0.83,30.96,12.28,31.45,28.78c0.49,16.75-12.67,30.73-29.23,31.04
		C334.01,358.97,320.21,345.43,320.25,327.74z M350.06,346.69c9.78,0.05,17.93-7.91,18.07-17.66c0.14-9.95-7.92-18.2-17.84-18.25
		c-9.79-0.05-17.93,7.9-18.06,17.65C332.09,338.39,340.15,346.64,350.06,346.69z"/>
	<path class="st0" d="M350.06,346.69c-9.92-0.05-17.98-8.3-17.84-18.26c0.14-9.75,8.27-17.7,18.06-17.65
		c9.92,0.05,17.98,8.29,17.84,18.25C367.99,338.78,359.85,346.75,350.06,346.69z M350.35,322.78c-3.23-0.1-6.03,2.54-6.13,5.78
		c-0.1,3.23,2.54,6.04,5.78,6.14c3.23,0.1,6.03-2.55,6.13-5.78C356.23,325.68,353.59,322.88,350.35,322.78z"/>
</g>
</svg>
